<svg width="54" height="54" viewBox="0 0 54 54" fill="none" xmlns="http://www.w3.org/2000/svg">
<path d="M53.5253 19.4773C53.3577 18.9836 53.0492 18.5498 52.6378 18.2295C52.2265 17.9091 51.7304 17.7162 51.2107 17.6746L36.008 16.4666L29.4293 1.90398C29.2198 1.43494 28.879 1.03657 28.4481 0.756931C28.0172 0.477294 27.5146 0.328346 27.0009 0.328064C26.4872 0.327782 25.9843 0.476178 25.5531 0.755342C25.1219 1.03451 24.7807 1.43251 24.5707 1.90131L17.992 16.4666L2.78932 17.6746C2.27854 17.7151 1.79022 17.9019 1.3828 18.2126C0.975381 18.5233 0.666103 18.9448 0.49197 19.4267C0.317838 19.9086 0.286223 20.4305 0.400908 20.9299C0.515594 21.4292 0.771724 21.885 1.13866 22.2426L12.3733 33.1946L8.39999 50.4C8.27934 50.9208 8.31801 51.4658 8.51097 51.9644C8.70394 52.4629 9.04229 52.892 9.48213 53.1958C9.92196 53.4997 10.443 53.6643 10.9775 53.6684C11.5121 53.6725 12.0356 53.5158 12.48 53.2186L27 43.5386L41.52 53.2186C41.9742 53.5202 42.5099 53.6755 43.055 53.6635C43.6001 53.6516 44.1285 53.473 44.569 53.1518C45.0096 52.8306 45.3413 52.3822 45.5194 51.8668C45.6975 51.3515 45.7135 50.794 45.5653 50.2693L40.688 33.2026L52.784 22.3173C53.576 21.6026 53.8667 20.488 53.5253 19.4773V19.4773Z" fill="#FFC107"/>
</svg>
